<svg width="50" height="32" viewBox="0 0 50 32" fill="none" xmlns="http://www.w3.org/2000/svg">
<g clip-path="url(#clip0_31_12)">
<rect width="50" height="32" rx="4" fill="white"/>
<rect width="50" height="3" fill="#B22234"/>
<rect y="5" width="50" height="3" fill="#B22234"/>
<rect y="10" width="50" height="3" fill="#B22234"/>
<rect y="15" width="50" height="3" fill="#B22234"/>
<rect y="20" width="50" height="3" fill="#B22234"/>
<rect y="25" width="50" height="3" fill="#B22234"/>
<rect y="30" width="50" height="3" fill="#B22234"/>
<rect x="-3" width="26" height="18" fill="#3C3B6E"/>
<path d="M4 5L4.22451 5.69098H4.95106L4.36327 6.11803L4.58779 6.80902L4 6.38197L3.41221 6.80902L3.63673 6.11803L3.04894 5.69098H3.77549L4 5Z" fill="white"/>
<path d="M7 5L7.22451 5.69098H7.95106L7.36327 6.11803L7.58779 6.80902L7 6.38197L6.41221 6.80902L6.63673 6.11803L6.04894 5.69098H6.77549L7 5Z" fill="white"/>
<path d="M10 5L10.2245 5.69098H10.9511L10.3633 6.11803L10.5878 6.80902L10 6.38197L9.41221 6.80902L9.63673 6.11803L9.04894 5.69098H9.77549L10 5Z" fill="white"/>
<path d="M13 5L13.2245 5.69098H13.9511L13.3633 6.11803L13.5878 6.80902L13 6.38197L12.4122 6.80902L12.6367 6.11803L12.0489 5.69098H12.7755L13 5Z" fill="white"/>
<path d="M16 5L16.2245 5.69098H16.9511L16.3633 6.11803L16.5878 6.80902L16 6.38197L15.4122 6.80902L15.6367 6.11803L15.0489 5.69098H15.7755L16 5Z" fill="white"/>
<path d="M19 5L19.2245 5.69098H19.9511L19.3633 6.11803L19.5878 6.80902L19 6.38197L18.4122 6.80902L18.6367 6.11803L18.0489 5.69098H18.7755L19 5Z" fill="white"/>
<path d="M4 11L4.22451 11.691H4.95106L4.36327 12.118L4.58779 12.809L4 12.382L3.41221 12.809L3.63673 12.118L3.04894 11.691H3.77549L4 11Z" fill="white"/>
<path d="M7 11L7.22451 11.691H7.95106L7.36327 12.118L7.58779 12.809L7 12.382L6.41221 12.809L6.63673 12.118L6.04894 11.691H6.77549L7 11Z" fill="white"/>
<path d="M10 11L10.2245 11.691H10.9511L10.3633 12.118L10.5878 12.809L10 12.382L9.41221 12.809L9.63673 12.118L9.04894 11.691H9.77549L10 11Z" fill="white"/>
<path d="M13 11L13.2245 11.691H13.9511L13.3633 12.118L13.5878 12.809L13 12.382L12.4122 12.809L12.6367 12.118L12.0489 11.691H12.7755L13 11Z" fill="white"/>
<path d="M16 11L16.2245 11.691H16.9511L16.3633 12.118L16.5878 12.809L16 12.382L15.4122 12.809L15.6367 12.118L15.0489 11.691H15.7755L16 11Z" fill="white"/>
<path d="M19 11L19.2245 11.691H19.9511L19.3633 12.118L19.5878 12.809L19 12.382L18.4122 12.809L18.6367 12.118L18.0489 11.691H18.7755L19 11Z" fill="white"/>
<path d="M2 2L2.22451 2.69098H2.95106L2.36327 3.11803L2.58779 3.80902L2 3.38197L1.41221 3.80902L1.63673 3.11803L1.04894 2.69098H1.77549L2 2Z" fill="white"/>
<path d="M6 2L6.22451 2.69098H6.95106L6.36327 3.11803L6.58779 3.80902L6 3.38197L5.41221 3.80902L5.63673 3.11803L5.04894 2.69098H5.77549L6 2Z" fill="white"/>
<path d="M10 2L10.2245 2.69098H10.9511L10.3633 3.11803L10.5878 3.80902L10 3.38197L9.41221 3.80902L9.63673 3.11803L9.04894 2.69098H9.77549L10 2Z" fill="white"/>
<path d="M14 2L14.2245 2.69098H14.9511L14.3633 3.11803L14.5878 3.80902L14 3.38197L13.4122 3.80902L13.6367 3.11803L13.0489 2.69098H13.7755L14 2Z" fill="white"/>
<path d="M18 2L18.2245 2.69098H18.9511L18.3633 3.11803L18.5878 3.80902L18 3.38197L17.4122 3.80902L17.6367 3.11803L17.0489 2.69098H17.7755L18 2Z" fill="white"/>
<path d="M21 2L21.2245 2.69098H21.9511L21.3633 3.11803L21.5878 3.80902L21 3.38197L20.4122 3.80902L20.6367 3.11803L20.0489 2.69098H20.7755L21 2Z" fill="white"/>
<path d="M2 8L2.22451 8.69098H2.95106L2.36327 9.11803L2.58779 9.80902L2 9.38197L1.41221 9.80902L1.63673 9.11803L1.04894 8.69098H1.77549L2 8Z" fill="white"/>
<path d="M6 8L6.22451 8.69098H6.95106L6.36327 9.11803L6.58779 9.80902L6 9.38197L5.41221 9.80902L5.63673 9.11803L5.04894 8.69098H5.77549L6 8Z" fill="white"/>
<path d="M10 8L10.2245 8.69098H10.9511L10.3633 9.11803L10.5878 9.80902L10 9.38197L9.41221 9.80902L9.63673 9.11803L9.04894 8.69098H9.77549L10 8Z" fill="white"/>
<path d="M14 8L14.2245 8.69098H14.9511L14.3633 9.11803L14.5878 9.80902L14 9.38197L13.4122 9.80902L13.6367 9.11803L13.0489 8.69098H13.7755L14 8Z" fill="white"/>
<path d="M18 8L18.2245 8.69098H18.9511L18.3633 9.11803L18.5878 9.80902L18 9.38197L17.4122 9.80902L17.6367 9.11803L17.0489 8.69098H17.7755L18 8Z" fill="white"/>
<path d="M21 8L21.2245 8.69098H21.9511L21.3633 9.11803L21.5878 9.80902L21 9.38197L20.4122 9.80902L20.6367 9.11803L20.0489 8.69098H20.7755L21 8Z" fill="white"/>
<path d="M2 14L2.22451 14.691H2.95106L2.36327 15.118L2.58779 15.809L2 15.382L1.41221 15.809L1.63673 15.118L1.04894 14.691H1.77549L2 14Z" fill="white"/>
<path d="M6 14L6.22451 14.691H6.95106L6.36327 15.118L6.58779 15.809L6 15.382L5.41221 15.809L5.63673 15.118L5.04894 14.691H5.77549L6 14Z" fill="white"/>
<path d="M10 14L10.2245 14.691H10.9511L10.3633 15.118L10.5878 15.809L10 15.382L9.41221 15.809L9.63673 15.118L9.04894 14.691H9.77549L10 14Z" fill="white"/>
<path d="M14 14L14.2245 14.691H14.9511L14.3633 15.118L14.5878 15.809L14 15.382L13.4122 15.809L13.6367 15.118L13.0489 14.691H13.7755L14 14Z" fill="white"/>
<path d="M18 14L18.2245 14.691H18.9511L18.3633 15.118L18.5878 15.809L18 15.382L17.4122 15.809L17.6367 15.118L17.0489 14.691H17.7755L18 14Z" fill="white"/>
<path d="M21 14L21.2245 14.691H21.9511L21.3633 15.118L21.5878 15.809L21 15.382L20.4122 15.809L20.6367 15.118L20.0489 14.691H20.7755L21 14Z" fill="white"/>
</g>
<defs>
<clipPath id="clip0_31_12">
<rect width="50" height="32" rx="4" fill="white"/>
</clipPath>
</defs>
</svg>
