<svg width="72" height="72" viewBox="0 0 72 72" fill="none" xmlns="http://www.w3.org/2000/svg">
<circle cx="36" cy="36" r="36" fill="#673DE6"/>
<path d="M21.5 16H49.5C50.4283 16 51.3185 16.453 51.9749 17.2594C52.6313 18.0658 53 19.1596 53 20.3V56.5L46 50.4H21.5C20.5717 50.4 19.6815 49.947 19.0251 49.1406C18.3688 48.3342 18 47.2404 18 46.1V20.3C18 19.1596 18.3688 18.0658 19.0251 17.2594C19.6815 16.453 20.5717 16 21.5 16Z" fill="white"/>
<path d="M23 40C33.1874 44.9586 38.6294 44.8443 48 40V42C39.0388 46.4608 33.5909 46.5987 23 42V40Z" fill="#673DE6"/>
</svg>
