<svg width="39" height="39" viewBox="0 0 39 39" fill="none" xmlns="http://www.w3.org/2000/svg">
<circle cx="19.5" cy="19.5" r="18.75" stroke="#EFE9FF" stroke-width="1.5"/>
<path d="M19.4631 27.1989C18.4877 27.1989 17.6165 27.0308 16.8494 26.6946C16.0871 26.3584 15.4834 25.892 15.0384 25.2955C14.598 24.6941 14.3613 23.9981 14.3281 23.2074H16.5582C16.5866 23.6383 16.7311 24.0123 16.9915 24.3295C17.2566 24.642 17.6023 24.8835 18.0284 25.054C18.4545 25.2244 18.928 25.3097 19.4489 25.3097C20.0218 25.3097 20.5284 25.2102 20.9688 25.0114C21.4138 24.8125 21.7618 24.5355 22.0128 24.1804C22.2637 23.8205 22.3892 23.4062 22.3892 22.9375C22.3892 22.4498 22.2637 22.0213 22.0128 21.652C21.7666 21.2779 21.4044 20.9844 20.9261 20.7713C20.4527 20.5582 19.8797 20.4517 19.2074 20.4517H17.9787V18.6619H19.2074C19.7472 18.6619 20.2206 18.5649 20.6278 18.3707C21.0398 18.1766 21.3617 17.9067 21.5938 17.5611C21.8258 17.2107 21.9418 16.8011 21.9418 16.3324C21.9418 15.8826 21.84 15.492 21.6364 15.1605C21.4375 14.8243 21.1534 14.5616 20.7841 14.3722C20.4195 14.1828 19.9886 14.0881 19.4915 14.0881C19.018 14.0881 18.5753 14.1757 18.1634 14.3509C17.7562 14.5213 17.4247 14.7675 17.169 15.0895C16.9134 15.4067 16.776 15.7879 16.7571 16.233H14.6335C14.6572 15.447 14.8892 14.7557 15.3295 14.1591C15.7746 13.5625 16.3617 13.0961 17.0909 12.7599C17.8201 12.4238 18.6297 12.2557 19.5199 12.2557C20.4527 12.2557 21.2576 12.438 21.9347 12.8026C22.6165 13.1624 23.142 13.643 23.5114 14.2443C23.8854 14.8456 24.0701 15.5038 24.0653 16.2188C24.0701 17.0331 23.8428 17.7244 23.3835 18.2926C22.929 18.8608 22.3229 19.242 21.5653 19.4361V19.5497C22.5313 19.6965 23.2794 20.08 23.8097 20.7003C24.3447 21.3205 24.6098 22.09 24.6051 23.0085C24.6098 23.8087 24.3873 24.526 23.9375 25.1605C23.4924 25.795 22.884 26.2945 22.1122 26.6591C21.3404 27.0189 20.4574 27.1989 19.4631 27.1989Z" fill="#673DE6"/>
</svg>
