<svg width="18" height="18" viewBox="0 0 18 18" fill="none" xmlns="http://www.w3.org/2000/svg">
<path d="M8.99998 0.111084C7.24192 0.111084 5.52335 0.632408 4.06157 1.60913C2.5998 2.58586 1.46049 3.97411 0.787714 5.59834C0.114935 7.22257 -0.0610943 9.00983 0.281885 10.7341C0.624865 12.4584 1.47145 14.0422 2.71458 15.2854C3.95772 16.5285 5.54157 17.3751 7.26584 17.7181C8.99012 18.061 10.7774 17.885 12.4016 17.2122C14.0258 16.5395 15.4141 15.4001 16.3908 13.9384C17.3675 12.4766 17.8889 10.758 17.8889 8.99997C17.8889 6.64249 16.9524 4.38157 15.2854 2.71458C13.6184 1.04759 11.3575 0.111084 8.99998 0.111084ZM14.8055 6.01664L7.50553 13.3111L3.19442 8.99997C3.04708 8.85263 2.9643 8.65279 2.9643 8.44442C2.9643 8.23604 3.04708 8.0362 3.19442 7.88886C3.34176 7.74152 3.5416 7.65874 3.74998 7.65874C3.95835 7.65874 4.15819 7.74152 4.30553 7.88886L7.51664 11.1L13.7055 4.91664C13.7785 4.84368 13.8651 4.78581 13.9604 4.74633C14.0557 4.70684 14.1579 4.68652 14.2611 4.68652C14.3643 4.68652 14.4664 4.70684 14.5618 4.74633C14.6571 4.78581 14.7437 4.84368 14.8166 4.91664C14.8896 4.9896 14.9475 5.07621 14.987 5.17153C15.0264 5.26685 15.0468 5.36902 15.0468 5.4722C15.0468 5.57537 15.0264 5.67754 14.987 5.77286C14.9475 5.86818 14.8896 5.95479 14.8166 6.02775L14.8055 6.01664Z" fill="#00B090"/>
</svg>
