<svg width="18" height="18" viewBox="0 0 18 18" fill="none" xmlns="http://www.w3.org/2000/svg">
<path fill-rule="evenodd" clip-rule="evenodd" d="M16 2.99947C15.9999 2.82908 15.9563 2.66153 15.8733 2.51274C15.7902 2.36394 15.6706 2.23883 15.5256 2.14927C15.3806 2.05971 15.2152 2.00868 15.045 2.00101C14.8748 1.99335 14.7054 2.0293 14.553 2.10547L6.763 5.99947H3C2.20435 5.99947 1.44129 6.31554 0.87868 6.87815C0.316071 7.44076 0 8.20382 0 8.99947C0 9.79512 0.316071 10.5582 0.87868 11.1208C1.44129 11.6834 2.20435 11.9995 3 11.9995H3.28L5.051 17.3155C5.11735 17.5147 5.24472 17.6879 5.41505 17.8107C5.58538 17.9335 5.79004 17.9995 6 17.9995H7C7.26522 17.9995 7.51957 17.8941 7.70711 17.7066C7.89464 17.519 8 17.2647 8 16.9995V12.6175L14.553 15.8935C14.7054 15.9696 14.8748 16.0056 15.045 15.9979C15.2152 15.9903 15.3806 15.9392 15.5256 15.8497C15.6706 15.7601 15.7902 15.635 15.8733 15.4862C15.9563 15.3374 15.9999 15.1699 16 14.9995V2.99947Z" fill="#F4F5FF"/>
<circle cx="15" cy="3" r="3" fill="#FC5185"/>
</svg>
