<svg width="14" height="19" viewBox="0 0 14 19" fill="none" xmlns="http://www.w3.org/2000/svg">
<path d="M6.99998 14.1666C7.44201 14.1666 7.86593 13.9911 8.17849 13.6785C8.49105 13.3659 8.66665 12.942 8.66665 12.5C8.66665 12.058 8.49105 11.634 8.17849 11.3215C7.86593 11.0089 7.44201 10.8333 6.99998 10.8333C6.55795 10.8333 6.13403 11.0089 5.82147 11.3215C5.50891 11.634 5.33331 12.058 5.33331 12.5C5.33331 12.942 5.50891 13.3659 5.82147 13.6785C6.13403 13.9911 6.55795 14.1666 6.99998 14.1666ZM12 6.66665C12.442 6.66665 12.8659 6.84224 13.1785 7.1548C13.4911 7.46736 13.6666 7.89129 13.6666 8.33331V16.6666C13.6666 17.1087 13.4911 17.5326 13.1785 17.8452C12.8659 18.1577 12.442 18.3333 12 18.3333H1.99998C1.55795 18.3333 1.13403 18.1577 0.821468 17.8452C0.508908 17.5326 0.333313 17.1087 0.333313 16.6666V8.33331C0.333313 7.89129 0.508908 7.46736 0.821468 7.1548C1.13403 6.84224 1.55795 6.66665 1.99998 6.66665H2.83331V4.99998C2.83331 3.89491 3.2723 2.8351 4.0537 2.0537C4.8351 1.2723 5.89491 0.833313 6.99998 0.833313C7.54715 0.833313 8.08897 0.941087 8.59449 1.15048C9.10002 1.35988 9.55935 1.66679 9.94626 2.0537C10.3332 2.44061 10.6401 2.89994 10.8495 3.40547C11.0589 3.91099 11.1666 4.45281 11.1666 4.99998V6.66665H12ZM6.99998 2.49998C6.33694 2.49998 5.70105 2.76337 5.23221 3.23221C4.76337 3.70105 4.49998 4.33694 4.49998 4.99998V6.66665H9.49998V4.99998C9.49998 4.33694 9.23659 3.70105 8.76775 3.23221C8.29891 2.76337 7.66302 2.49998 6.99998 2.49998Z" fill="#727586"/>
</svg>
