<svg width="18" height="12" viewBox="0 0 18 12" fill="none" xmlns="http://www.w3.org/2000/svg">
<path d="M12.75 6.00002C13.9 6.00002 14.825 5.06669 14.825 3.91669C14.825 2.76669 13.9 1.83335 12.75 1.83335C12.1975 1.83335 11.6676 2.05285 11.2769 2.44355C10.8862 2.83425 10.6667 3.36415 10.6667 3.91669C10.6667 4.46922 10.8862 4.99913 11.2769 5.38983C11.6676 5.78053 12.1975 6.00002 12.75 6.00002ZM6.50002 5.16669C7.88335 5.16669 8.99169 4.05002 8.99169 2.66669C8.99169 1.28335 7.88335 0.166687 6.50002 0.166687C5.11669 0.166687 4.00002 1.28335 4.00002 2.66669C4.00002 4.05002 5.11669 5.16669 6.50002 5.16669ZM12.75 7.66669C11.225 7.66669 8.16669 8.43335 8.16669 9.95835V11C8.16669 11.4584 8.54169 11.8334 9.00002 11.8334H16.5C16.9584 11.8334 17.3334 11.4584 17.3334 11V9.95835C17.3334 8.43335 14.275 7.66669 12.75 7.66669ZM6.50002 6.83335C4.55835 6.83335 0.666687 7.80835 0.666687 9.75002V11C0.666687 11.4584 1.04169 11.8334 1.50002 11.8334H6.50002V9.95835C6.50002 9.25002 6.77502 8.00835 8.47502 7.06669C7.75002 6.91669 7.05002 6.83335 6.50002 6.83335Z" fill="#727586"/>
</svg>
