<svg width="14" height="14" viewBox="0 0 14 14" fill="none" xmlns="http://www.w3.org/2000/svg">
<path d="M6.99998 0.333344C7.88403 0.333344 8.73188 0.684533 9.357 1.30965C9.98212 1.93478 10.3333 2.78262 10.3333 3.66668C10.3333 4.55073 9.98212 5.39858 9.357 6.0237C8.73188 6.64882 7.88403 7.00001 6.99998 7.00001C6.11592 7.00001 5.26808 6.64882 4.64296 6.0237C4.01784 5.39858 3.66665 4.55073 3.66665 3.66668C3.66665 2.78262 4.01784 1.93478 4.64296 1.30965C5.26808 0.684533 6.11592 0.333344 6.99998 0.333344ZM6.99998 8.66668C10.6833 8.66668 13.6666 10.1583 13.6666 12V13.6667H0.333313V12C0.333313 10.1583 3.31665 8.66668 6.99998 8.66668Z" fill="#727586"/>
</svg>
