<svg width="20" height="20" viewBox="0 0 20 20" fill="none" xmlns="http://www.w3.org/2000/svg">
<path d="M1.35833 0.391672C1.27234 0.392326 1.19005 0.426777 1.12925 0.487585C1.06844 0.548393 1.03399 0.630679 1.03333 0.716672V2.73084C1.03333 2.9075 1.18083 3.05584 1.35833 3.05584H18.6417C18.8192 3.05584 18.9667 2.9075 18.9667 2.73084V0.715839C18.966 0.629845 18.9316 0.54756 18.8708 0.486752C18.8099 0.425944 18.7277 0.391493 18.6417 0.390839L1.35833 0.391672ZM1.32083 3.83001C1.24026 3.82931 1.16204 3.85711 1.09997 3.9085C1.03791 3.95988 0.99601 4.03155 0.981667 4.11084L0.00666667 9.3725C0 9.395 0 9.41667 0 9.43917V11.2033C0 11.395 0.155 11.55 0.346667 11.55H19.6533C19.845 11.55 20 11.395 20 11.2033V9.43167C20 9.40917 20 9.3875 19.9925 9.365L19.0183 4.11084C19.004 4.03155 18.9621 3.95988 18.9 3.9085C18.838 3.85711 18.7597 3.82931 18.6792 3.83001H1.32083ZM1.41667 12.3175C1.36623 12.3172 1.31624 12.3269 1.26958 12.346C1.22292 12.3652 1.18053 12.3934 1.14487 12.429C1.10921 12.4647 1.08098 12.5071 1.06184 12.5538C1.04269 12.6004 1.033 12.6504 1.03333 12.7008V19.225C1.03333 19.4392 1.2025 19.6083 1.41667 19.6083H13.1733C13.3875 19.6083 13.5567 19.4392 13.5567 19.225V13.7342C13.5567 13.52 13.7267 13.3508 13.9408 13.3508H17.2908C17.5058 13.3508 17.675 13.52 17.675 13.7342V19.225C17.675 19.4392 17.845 19.6083 18.0583 19.6083H18.575C18.6255 19.6089 18.6757 19.5994 18.7225 19.5803C18.7693 19.5613 18.8118 19.533 18.8476 19.4974C18.8834 19.4617 18.9117 19.4192 18.9308 19.3724C18.95 19.3257 18.9596 19.2755 18.9592 19.225V12.7008C18.9594 12.6504 18.9496 12.6005 18.9304 12.5539C18.9113 12.5073 18.883 12.4649 18.8474 12.4293C18.8117 12.3936 18.7694 12.3654 18.7228 12.3462C18.6762 12.327 18.6262 12.3173 18.5758 12.3175H1.41667ZM2.95167 13.6092H9.49083C9.6675 13.6092 9.81583 13.7567 9.81583 13.9342V18C9.81583 18.1767 9.6675 18.325 9.49083 18.325H2.95167C2.86567 18.3243 2.78339 18.2899 2.72258 18.2291C2.66177 18.1683 2.62732 18.086 2.62667 18V13.9333C2.62667 13.7492 2.775 13.6092 2.95167 13.6092Z" fill="#F4F5FF"/>
</svg>
